<svg width="92" height="89" viewBox="0 0 92 89" fill="none" xmlns="http://www.w3.org/2000/svg">
<path d="M60.2333 14.942L67.7352 14.8288C69.7248 14.7987 71.6444 15.5332 73.0718 16.8706C74.4991 18.208 75.3173 20.0388 75.3463 21.9602L76.1115 72.6722C76.1405 74.5936 75.3779 76.4482 73.9915 77.8281C72.6051 79.2079 70.7085 80 68.7189 80.03L23.7079 80.7092C21.7183 80.7392 19.7987 80.0047 18.3713 78.6673C16.9439 77.3299 16.1257 75.4991 16.0968 73.5778L15.3316 22.8657C15.3026 20.9443 16.0652 19.0897 17.4515 17.7098C18.8379 16.33 20.7345 15.5379 22.7241 15.5079L30.226 15.3947" stroke="white" stroke-width="2" stroke-linecap="round" stroke-linejoin="round"/>
<path d="M56.3731 7.75398L33.8676 8.09355C31.796 8.12481 30.1412 9.7719 30.1714 11.7724L30.2807 19.017C30.3108 21.0176 32.0147 22.614 34.0862 22.5827L56.5917 22.2431C58.6633 22.2119 60.3182 20.5648 60.288 18.5643L60.1787 11.3197C60.1485 9.31914 58.4447 7.72272 56.3731 7.75398Z" stroke="white" stroke-width="2" stroke-linecap="round" stroke-linejoin="round"/>
</svg>
